<svg xmlns="http://www.w3.org/2000/svg" viewBox="0 0 218.9 215.24"><defs><style>.cls-1{fill:#f5813f;}.cls-2{fill:#f5e03f;}</style></defs><g id="Layer_2" data-name="Layer 2"><g id="Layer_1-2" data-name="Layer 1"><path class="cls-1" d="M151.66,213.82S61,221.09,35.74,202.71,0,164.41,0,142.45c0-30,54.83-80.68,59.09-85.36,9.43-10.38-6.49,25.81,2.7,47.42C65,112.14,76.6,108.24,82.72,96s4.11-37.44,17.62-57.19C113.21,20,182.57-4.61,180.28.75S169,62.53,175.15,69.43s48,40.85,43.4,91.4C214.39,206.58,151.66,213.82,151.66,213.82Z"/><path class="cls-2" d="M109.45,196.1a43.75,43.75,0,0,1-16.75-1.82c-9.19-2.81-13-21.32-9.4-20.3s12,9.58,13.23,6.51-10.85-8.42-7.34-22,11.09-15.06,11.09-10.21.34,13.28,5.19,14,11-1,13.79-6.63-9-17.14-4.17-16.47S151,155.6,145.6,169.9s-7.71,19-21.49,22.85S109.45,196.1,109.45,196.1Z"/></g></g></svg>