<svg xmlns="http://www.w3.org/2000/svg" viewBox="0 0 218.9 205.5"><defs><style>.cls-1{fill:#f5813f;}.cls-2{fill:#f5e03f;}</style></defs><g id="Layer_2" data-name="Layer 2"><g id="Layer_1-2" data-name="Layer 1"><path class="cls-1" d="M151.66,204.08S61,211.34,35.74,193,0,154.66,0,132.71c0-30,71.82-87.25,71-82.73C68.43,63.77,52.6,73.15,61.79,94.77,65,102.4,76.6,98.49,82.72,86.24S82,44.37,100.34,29.05,191.74-4.4,189.45,1,169,52.79,175.15,59.68s48,40.86,43.4,91.41C214.39,196.83,151.66,204.08,151.66,204.08Z"/><path class="cls-2" d="M107.51,186.07s-5.62,1.27-14.81-1.53-18.89-24-15.32-23,17.88,12.25,19.15,9.19-10.85-8.43-7.34-22,12.7-21.45,12.7-16.59-1.27,19.65,3.58,20.42,11-1,13.79-6.64-4.86-15.89,0-15.22,27.57,12.16,22.21,26.46-3.58,21.95-17.36,25.78S107.51,186.07,107.51,186.07Z"/></g></g></svg>